<mxfile host="www.draw.io" modified="2019-12-09T01:01:21.737Z" agent="Mozilla/5.0 (Windows NT 6.1; Win64; x64) AppleWebKit/537.36 (KHTML, like Gecko) Chrome/77.0.3865.120 Safari/537.36" etag="UMFspYyeEZe153g7TsDB" version="12.3.8" type="github" pages="3">
  <diagram id="9IbgbDr_LpOW7SJLi0mh" name="菜单列表展示页面">
    <mxGraphModel dx="1038" dy="592" grid="1" gridSize="10" guides="1" tooltips="1" connect="1" arrows="1" fold="1" page="1" pageScale="1" pageWidth="1600" pageHeight="900" math="0" shadow="0">
      <root>
        <mxCell id="9vq7s_pTVu-RZlB3cMjH-0"/>
        <mxCell id="9vq7s_pTVu-RZlB3cMjH-1" parent="9vq7s_pTVu-RZlB3cMjH-0"/>
        <mxCell id="QPCoUr0xgJGRs_4jgRT2-0" value="&lt;h2 style=&quot;margin-left: 28.35pt ; text-indent: -28.35pt ; line-height: 172% ; font-size: 32px&quot;&gt;&lt;span style=&quot;font-size: 32px&quot;&gt;菜单列表页面&lt;/span&gt;&lt;/h2&gt;" style="text;html=1;align=center;verticalAlign=middle;resizable=0;points=[];;autosize=1;fontFamily=Helvetica;fontSize=32;" parent="9vq7s_pTVu-RZlB3cMjH-1" vertex="1">
          <mxGeometry x="690" y="10" width="210" height="110" as="geometry"/>
        </mxCell>
        <mxCell id="QPCoUr0xgJGRs_4jgRT2-40" style="edgeStyle=orthogonalEdgeStyle;rounded=0;orthogonalLoop=1;jettySize=auto;html=1;startArrow=none;startFill=0;endArrow=classic;endFill=1;fontFamily=Helvetica;fontSize=32;strokeWidth=2;" parent="9vq7s_pTVu-RZlB3cMjH-1" source="wQesT0TykTv-_JlOC6mH-26" edge="1">
          <mxGeometry relative="1" as="geometry">
            <mxPoint x="399" y="760" as="targetPoint"/>
          </mxGeometry>
        </mxCell>
        <mxCell id="QPCoUr0xgJGRs_4jgRT2-39" value="" style="outlineConnect=0;fontColor=#232F3E;gradientColor=none;fillColor=#232F3E;strokeColor=none;dashed=0;verticalLabelPosition=bottom;verticalAlign=top;align=center;html=1;fontSize=12;fontStyle=0;aspect=fixed;pointerEvents=1;shape=mxgraph.aws4.user;comic=0;" parent="9vq7s_pTVu-RZlB3cMjH-1" vertex="1">
          <mxGeometry x="360" y="200" width="78" height="78" as="geometry"/>
        </mxCell>
        <mxCell id="QPCoUr0xgJGRs_4jgRT2-42" style="rounded=0;orthogonalLoop=1;jettySize=auto;html=1;startFill=0;endFill=1;strokeWidth=2;fontSize=14;" parent="9vq7s_pTVu-RZlB3cMjH-1" source="wQesT0TykTv-_JlOC6mH-12" edge="1">
          <mxGeometry relative="1" as="geometry">
            <mxPoint x="600" y="760" as="targetPoint"/>
            <Array as="points"/>
          </mxGeometry>
        </mxCell>
        <mxCell id="QPCoUr0xgJGRs_4jgRT2-41" value="PageController" style="rounded=1;whiteSpace=wrap;html=1;comic=0;fillColor=#FFFFFF;fontFamily=Helvetica;fontSize=14;align=center;strokeWidth=2;" parent="9vq7s_pTVu-RZlB3cMjH-1" vertex="1">
          <mxGeometry x="540" y="218" width="120" height="60" as="geometry"/>
        </mxCell>
        <mxCell id="QPCoUr0xgJGRs_4jgRT2-43" value="menu/menu_list" style="endArrow=classic;html=1;strokeWidth=2;fontSize=14;" parent="9vq7s_pTVu-RZlB3cMjH-1" edge="1">
          <mxGeometry width="50" height="50" relative="1" as="geometry">
            <mxPoint x="399" y="320" as="sourcePoint"/>
            <mxPoint x="600" y="320" as="targetPoint"/>
          </mxGeometry>
        </mxCell>
        <mxCell id="QPCoUr0xgJGRs_4jgRT2-44" value="menu_list.html" style="endArrow=classic;html=1;strokeWidth=2;fontSize=14;" parent="9vq7s_pTVu-RZlB3cMjH-1" edge="1">
          <mxGeometry width="50" height="50" relative="1" as="geometry">
            <mxPoint x="600" y="360" as="sourcePoint"/>
            <mxPoint x="400" y="360" as="targetPoint"/>
          </mxGeometry>
        </mxCell>
        <mxCell id="QPCoUr0xgJGRs_4jgRT2-45" value="update UI" style="endArrow=classic;html=1;strokeWidth=2;fontSize=12;edgeStyle=elbowEdgeStyle;" parent="9vq7s_pTVu-RZlB3cMjH-1" edge="1">
          <mxGeometry width="50" height="50" relative="1" as="geometry">
            <mxPoint x="399" y="380" as="sourcePoint"/>
            <mxPoint x="399" y="420" as="targetPoint"/>
            <Array as="points">
              <mxPoint x="440" y="400"/>
            </Array>
          </mxGeometry>
        </mxCell>
        <mxCell id="QPCoUr0xgJGRs_4jgRT2-46" value="doFindObject" style="endArrow=classic;html=1;strokeWidth=2;fontSize=14;" parent="9vq7s_pTVu-RZlB3cMjH-1" edge="1">
          <mxGeometry x="0.5" width="50" height="50" relative="1" as="geometry">
            <mxPoint x="400" y="440" as="sourcePoint"/>
            <mxPoint x="800" y="440" as="targetPoint"/>
            <mxPoint as="offset"/>
          </mxGeometry>
        </mxCell>
        <mxCell id="QPCoUr0xgJGRs_4jgRT2-47" style="rounded=0;orthogonalLoop=1;jettySize=auto;html=1;startFill=0;endFill=1;strokeWidth=2;fontSize=14;" parent="9vq7s_pTVu-RZlB3cMjH-1" source="wQesT0TykTv-_JlOC6mH-19" edge="1">
          <mxGeometry relative="1" as="geometry">
            <mxPoint x="800" y="760" as="targetPoint"/>
            <Array as="points"/>
          </mxGeometry>
        </mxCell>
        <mxCell id="QPCoUr0xgJGRs_4jgRT2-48" value="SysMenuController" style="rounded=1;whiteSpace=wrap;html=1;comic=0;fillColor=#FFFFFF;fontFamily=Helvetica;fontSize=14;align=center;strokeWidth=2;" parent="9vq7s_pTVu-RZlB3cMjH-1" vertex="1">
          <mxGeometry x="725" y="218" width="150" height="60" as="geometry"/>
        </mxCell>
        <mxCell id="QPCoUr0xgJGRs_4jgRT2-49" style="rounded=0;orthogonalLoop=1;jettySize=auto;html=1;startFill=0;endFill=1;strokeWidth=2;fontSize=14;" parent="9vq7s_pTVu-RZlB3cMjH-1" source="wQesT0TykTv-_JlOC6mH-21" edge="1">
          <mxGeometry relative="1" as="geometry">
            <mxPoint x="1000" y="760" as="targetPoint"/>
            <Array as="points"/>
          </mxGeometry>
        </mxCell>
        <mxCell id="QPCoUr0xgJGRs_4jgRT2-56" style="edgeStyle=elbowEdgeStyle;rounded=0;orthogonalLoop=1;jettySize=auto;html=1;entryX=0.5;entryY=1;entryDx=0;entryDy=0;startFill=0;endFill=1;strokeWidth=2;fontSize=14;" parent="9vq7s_pTVu-RZlB3cMjH-1" source="QPCoUr0xgJGRs_4jgRT2-50" target="QPCoUr0xgJGRs_4jgRT2-55" edge="1">
          <mxGeometry relative="1" as="geometry"/>
        </mxCell>
        <mxCell id="QPCoUr0xgJGRs_4jgRT2-50" value="SysMenuServiceImpl" style="rounded=1;whiteSpace=wrap;html=1;comic=0;fillColor=#FFFFFF;fontFamily=Helvetica;fontSize=14;align=center;strokeWidth=2;" parent="9vq7s_pTVu-RZlB3cMjH-1" vertex="1">
          <mxGeometry x="926" y="218" width="150" height="60" as="geometry"/>
        </mxCell>
        <mxCell id="QPCoUr0xgJGRs_4jgRT2-51" style="rounded=0;orthogonalLoop=1;jettySize=auto;html=1;startFill=0;endFill=1;strokeWidth=2;fontSize=14;" parent="9vq7s_pTVu-RZlB3cMjH-1" source="wQesT0TykTv-_JlOC6mH-23" edge="1">
          <mxGeometry relative="1" as="geometry">
            <mxPoint x="1200" y="760" as="targetPoint"/>
            <Array as="points"/>
          </mxGeometry>
        </mxCell>
        <mxCell id="wQesT0TykTv-_JlOC6mH-2" style="edgeStyle=elbowEdgeStyle;rounded=0;orthogonalLoop=1;jettySize=auto;html=1;entryX=0.5;entryY=1;entryDx=0;entryDy=0;startFill=0;endFill=1;strokeWidth=2;fontSize=14;" parent="9vq7s_pTVu-RZlB3cMjH-1" source="QPCoUr0xgJGRs_4jgRT2-52" target="wQesT0TykTv-_JlOC6mH-1" edge="1">
          <mxGeometry relative="1" as="geometry"/>
        </mxCell>
        <mxCell id="QPCoUr0xgJGRs_4jgRT2-52" value="$Proxy36" style="rounded=1;whiteSpace=wrap;html=1;comic=0;fillColor=#FFFFFF;fontFamily=Helvetica;fontSize=14;align=center;strokeWidth=2;dashed=1;" parent="9vq7s_pTVu-RZlB3cMjH-1" vertex="1">
          <mxGeometry x="1140" y="218" width="120" height="60" as="geometry"/>
        </mxCell>
        <mxCell id="QPCoUr0xgJGRs_4jgRT2-55" value="&lt;font style=&quot;font-size: 14px;&quot;&gt;SysMenuService&lt;/font&gt;" style="ellipse;whiteSpace=wrap;html=1;rounded=1;comic=0;strokeWidth=2;fillColor=#FFFFFF;fontSize=14;" parent="9vq7s_pTVu-RZlB3cMjH-1" vertex="1">
          <mxGeometry x="923" y="100" width="156" height="70" as="geometry"/>
        </mxCell>
        <mxCell id="wQesT0TykTv-_JlOC6mH-1" value="&lt;font style=&quot;font-size: 14px&quot;&gt;SysMenuDao&lt;/font&gt;" style="ellipse;whiteSpace=wrap;html=1;rounded=1;comic=0;strokeWidth=2;fillColor=#FFFFFF;fontSize=14;" parent="9vq7s_pTVu-RZlB3cMjH-1" vertex="1">
          <mxGeometry x="1122" y="100" width="156" height="70" as="geometry"/>
        </mxCell>
        <mxCell id="wQesT0TykTv-_JlOC6mH-3" value="findObjects()" style="endArrow=classic;html=1;strokeWidth=2;fontSize=14;" parent="9vq7s_pTVu-RZlB3cMjH-1" edge="1">
          <mxGeometry width="50" height="50" relative="1" as="geometry">
            <mxPoint x="800" y="480" as="sourcePoint"/>
            <mxPoint x="1000" y="480" as="targetPoint"/>
          </mxGeometry>
        </mxCell>
        <mxCell id="wQesT0TykTv-_JlOC6mH-4" value="findObjects()" style="endArrow=classic;html=1;strokeWidth=2;fontSize=14;" parent="9vq7s_pTVu-RZlB3cMjH-1" edge="1">
          <mxGeometry width="50" height="50" relative="1" as="geometry">
            <mxPoint x="1000" y="520" as="sourcePoint"/>
            <mxPoint x="1200" y="520" as="targetPoint"/>
          </mxGeometry>
        </mxCell>
        <mxCell id="wQesT0TykTv-_JlOC6mH-5" value="List&amp;lt;Map&amp;gt;" style="endArrow=classic;html=1;strokeWidth=2;fontSize=14;" parent="9vq7s_pTVu-RZlB3cMjH-1" edge="1">
          <mxGeometry width="50" height="50" relative="1" as="geometry">
            <mxPoint x="1200" y="560" as="sourcePoint"/>
            <mxPoint x="1000" y="560" as="targetPoint"/>
          </mxGeometry>
        </mxCell>
        <mxCell id="wQesT0TykTv-_JlOC6mH-6" value="List&amp;lt;Map&amp;gt;" style="endArrow=classic;html=1;strokeWidth=2;fontSize=14;" parent="9vq7s_pTVu-RZlB3cMjH-1" edge="1">
          <mxGeometry width="50" height="50" relative="1" as="geometry">
            <mxPoint x="999" y="600" as="sourcePoint"/>
            <mxPoint x="799" y="600" as="targetPoint"/>
          </mxGeometry>
        </mxCell>
        <mxCell id="wQesT0TykTv-_JlOC6mH-7" value="JsonResult" style="endArrow=classic;html=1;strokeWidth=2;fontSize=14;" parent="9vq7s_pTVu-RZlB3cMjH-1" edge="1">
          <mxGeometry x="0.45" width="50" height="50" relative="1" as="geometry">
            <mxPoint x="800" y="640" as="sourcePoint"/>
            <mxPoint x="400" y="640" as="targetPoint"/>
            <mxPoint as="offset"/>
          </mxGeometry>
        </mxCell>
        <mxCell id="wQesT0TykTv-_JlOC6mH-8" value="update UI" style="endArrow=classic;html=1;strokeWidth=2;fontSize=12;edgeStyle=elbowEdgeStyle;" parent="9vq7s_pTVu-RZlB3cMjH-1" edge="1">
          <mxGeometry width="50" height="50" relative="1" as="geometry">
            <mxPoint x="399" y="660" as="sourcePoint"/>
            <mxPoint x="399" y="700" as="targetPoint"/>
            <Array as="points">
              <mxPoint x="440" y="680"/>
            </Array>
          </mxGeometry>
        </mxCell>
        <mxCell id="wQesT0TykTv-_JlOC6mH-9" value="" style="rounded=0;whiteSpace=wrap;html=1;comic=0;strokeWidth=2;fillColor=#000000;fontSize=14;" parent="9vq7s_pTVu-RZlB3cMjH-1" vertex="1">
          <mxGeometry x="394" y="310" width="10" height="19" as="geometry"/>
        </mxCell>
        <mxCell id="wQesT0TykTv-_JlOC6mH-10" style="edgeStyle=orthogonalEdgeStyle;rounded=0;orthogonalLoop=1;jettySize=auto;html=1;startArrow=none;startFill=0;endArrow=none;endFill=0;fontFamily=Helvetica;fontSize=32;strokeWidth=2;" parent="9vq7s_pTVu-RZlB3cMjH-1" source="QPCoUr0xgJGRs_4jgRT2-39" target="wQesT0TykTv-_JlOC6mH-9" edge="1">
          <mxGeometry relative="1" as="geometry">
            <mxPoint x="399" y="760" as="targetPoint"/>
            <mxPoint x="399" y="277.9353233830843" as="sourcePoint"/>
          </mxGeometry>
        </mxCell>
        <mxCell id="wQesT0TykTv-_JlOC6mH-12" value="" style="rounded=0;whiteSpace=wrap;html=1;comic=0;strokeWidth=2;fillColor=#000000;fontSize=14;" parent="9vq7s_pTVu-RZlB3cMjH-1" vertex="1">
          <mxGeometry x="595" y="320" width="10" height="40" as="geometry"/>
        </mxCell>
        <mxCell id="wQesT0TykTv-_JlOC6mH-13" style="rounded=0;orthogonalLoop=1;jettySize=auto;html=1;startFill=0;endFill=0;strokeWidth=2;fontSize=14;endArrow=none;" parent="9vq7s_pTVu-RZlB3cMjH-1" source="QPCoUr0xgJGRs_4jgRT2-41" target="wQesT0TykTv-_JlOC6mH-12" edge="1">
          <mxGeometry relative="1" as="geometry">
            <mxPoint x="600" y="760" as="targetPoint"/>
            <mxPoint x="600" y="278" as="sourcePoint"/>
            <Array as="points"/>
          </mxGeometry>
        </mxCell>
        <mxCell id="wQesT0TykTv-_JlOC6mH-14" value="" style="rounded=0;whiteSpace=wrap;html=1;comic=0;strokeWidth=2;fillColor=#000000;fontSize=14;" parent="9vq7s_pTVu-RZlB3cMjH-1" vertex="1">
          <mxGeometry x="394" y="361" width="10" height="79" as="geometry"/>
        </mxCell>
        <mxCell id="wQesT0TykTv-_JlOC6mH-18" style="edgeStyle=orthogonalEdgeStyle;rounded=0;orthogonalLoop=1;jettySize=auto;html=1;startArrow=none;startFill=0;endArrow=none;endFill=0;fontFamily=Helvetica;fontSize=32;strokeWidth=2;" parent="9vq7s_pTVu-RZlB3cMjH-1" source="wQesT0TykTv-_JlOC6mH-9" target="wQesT0TykTv-_JlOC6mH-14" edge="1">
          <mxGeometry relative="1" as="geometry">
            <mxPoint x="399" y="760" as="targetPoint"/>
            <mxPoint x="399" y="329" as="sourcePoint"/>
          </mxGeometry>
        </mxCell>
        <mxCell id="wQesT0TykTv-_JlOC6mH-19" value="" style="rounded=0;whiteSpace=wrap;html=1;comic=0;strokeWidth=2;fillColor=#000000;fontSize=14;" parent="9vq7s_pTVu-RZlB3cMjH-1" vertex="1">
          <mxGeometry x="795" y="440" width="10" height="200" as="geometry"/>
        </mxCell>
        <mxCell id="wQesT0TykTv-_JlOC6mH-20" style="rounded=0;orthogonalLoop=1;jettySize=auto;html=1;startFill=0;endFill=0;strokeWidth=2;fontSize=14;endArrow=none;" parent="9vq7s_pTVu-RZlB3cMjH-1" source="QPCoUr0xgJGRs_4jgRT2-48" target="wQesT0TykTv-_JlOC6mH-19" edge="1">
          <mxGeometry relative="1" as="geometry">
            <mxPoint x="800" y="760" as="targetPoint"/>
            <Array as="points"/>
            <mxPoint x="800" y="277.9999999999998" as="sourcePoint"/>
          </mxGeometry>
        </mxCell>
        <mxCell id="wQesT0TykTv-_JlOC6mH-21" value="" style="rounded=0;whiteSpace=wrap;html=1;comic=0;strokeWidth=2;fillColor=#000000;fontSize=14;" parent="9vq7s_pTVu-RZlB3cMjH-1" vertex="1">
          <mxGeometry x="996" y="480" width="10" height="120" as="geometry"/>
        </mxCell>
        <mxCell id="wQesT0TykTv-_JlOC6mH-22" style="rounded=0;orthogonalLoop=1;jettySize=auto;html=1;startFill=0;endFill=0;strokeWidth=2;fontSize=14;endArrow=none;" parent="9vq7s_pTVu-RZlB3cMjH-1" source="QPCoUr0xgJGRs_4jgRT2-50" target="wQesT0TykTv-_JlOC6mH-21" edge="1">
          <mxGeometry relative="1" as="geometry">
            <mxPoint x="1000" y="760" as="targetPoint"/>
            <Array as="points"/>
            <mxPoint x="1000.94140625" y="277.9999999999998" as="sourcePoint"/>
          </mxGeometry>
        </mxCell>
        <mxCell id="wQesT0TykTv-_JlOC6mH-23" value="" style="rounded=0;whiteSpace=wrap;html=1;comic=0;strokeWidth=2;fillColor=#000000;fontSize=14;" parent="9vq7s_pTVu-RZlB3cMjH-1" vertex="1">
          <mxGeometry x="1195" y="520" width="10" height="40" as="geometry"/>
        </mxCell>
        <mxCell id="wQesT0TykTv-_JlOC6mH-24" style="rounded=0;orthogonalLoop=1;jettySize=auto;html=1;startFill=0;endFill=0;strokeWidth=2;fontSize=14;endArrow=none;" parent="9vq7s_pTVu-RZlB3cMjH-1" source="QPCoUr0xgJGRs_4jgRT2-52" target="wQesT0TykTv-_JlOC6mH-23" edge="1">
          <mxGeometry relative="1" as="geometry">
            <mxPoint x="1200" y="760" as="targetPoint"/>
            <Array as="points"/>
            <mxPoint x="1200" y="277.9999999999998" as="sourcePoint"/>
          </mxGeometry>
        </mxCell>
        <mxCell id="wQesT0TykTv-_JlOC6mH-26" value="" style="rounded=0;whiteSpace=wrap;html=1;comic=0;strokeWidth=2;fillColor=#000000;fontSize=14;" parent="9vq7s_pTVu-RZlB3cMjH-1" vertex="1">
          <mxGeometry x="394" y="640" width="10" height="60" as="geometry"/>
        </mxCell>
        <mxCell id="wQesT0TykTv-_JlOC6mH-27" style="edgeStyle=orthogonalEdgeStyle;rounded=0;orthogonalLoop=1;jettySize=auto;html=1;startArrow=none;startFill=0;endArrow=none;endFill=0;fontFamily=Helvetica;fontSize=32;strokeWidth=2;" parent="9vq7s_pTVu-RZlB3cMjH-1" source="wQesT0TykTv-_JlOC6mH-14" target="wQesT0TykTv-_JlOC6mH-26" edge="1">
          <mxGeometry relative="1" as="geometry">
            <mxPoint x="399" y="760" as="targetPoint"/>
            <mxPoint x="399.0588235294117" y="440" as="sourcePoint"/>
          </mxGeometry>
        </mxCell>
        <mxCell id="wQesT0TykTv-_JlOC6mH-29" style="edgeStyle=none;orthogonalLoop=1;jettySize=auto;html=1;entryX=1;entryY=0.5;entryDx=0;entryDy=0;endArrow=classic;endFill=1;strokeWidth=2;fontSize=14;startArrow=classic;startFill=1;" parent="9vq7s_pTVu-RZlB3cMjH-1" source="wQesT0TykTv-_JlOC6mH-28" target="wQesT0TykTv-_JlOC6mH-23" edge="1">
          <mxGeometry relative="1" as="geometry"/>
        </mxCell>
        <mxCell id="wQesT0TykTv-_JlOC6mH-28" value="DB" style="shape=cylinder;whiteSpace=wrap;html=1;boundedLbl=1;backgroundOutline=1;rounded=1;comic=0;strokeWidth=2;fillColor=#ffffff;fontSize=14;fontStyle=1" parent="9vq7s_pTVu-RZlB3cMjH-1" vertex="1">
          <mxGeometry x="1278" y="465" width="112" height="150" as="geometry"/>
        </mxCell>
        <mxCell id="Jka3uyS6MUH5zlc2TXR2-0" value="&lt;h2 style=&quot;margin-left: 28.35pt; text-indent: -28.35pt; line-height: 172%; font-size: 26px;&quot;&gt;&lt;span style=&quot;font-size: 26px;&quot;&gt;菜单页面数据分析&lt;/span&gt;&lt;/h2&gt;" style="text;html=1;align=center;verticalAlign=middle;resizable=0;points=[];;autosize=1;fontFamily=Helvetica;fontSize=26;" parent="9vq7s_pTVu-RZlB3cMjH-1" vertex="1">
          <mxGeometry x="685" y="897" width="220" height="90" as="geometry"/>
        </mxCell>
        <mxCell id="Jka3uyS6MUH5zlc2TXR2-1" value="" style="shape=cylinder;whiteSpace=wrap;html=1;boundedLbl=1;backgroundOutline=1;fontFamily=Helvetica;" parent="9vq7s_pTVu-RZlB3cMjH-1" vertex="1">
          <mxGeometry x="1049.5" y="1045.5" width="233" height="280" as="geometry"/>
        </mxCell>
        <mxCell id="Jka3uyS6MUH5zlc2TXR2-2" value="Table：sys_menus" style="swimlane;fontStyle=0;childLayout=stackLayout;horizontal=1;startSize=26;fillColor=#e0e0e0;horizontalStack=0;resizeParent=1;resizeParentMax=0;resizeLast=0;collapsible=1;marginBottom=0;swimlaneFillColor=#ffffff;align=center;fontSize=14;" parent="9vq7s_pTVu-RZlB3cMjH-1" vertex="1">
          <mxGeometry x="1093.5" y="1145.5" width="145" height="134" as="geometry">
            <mxRectangle x="700" y="220" width="150" height="26" as="alternateBounds"/>
          </mxGeometry>
        </mxCell>
        <mxCell id="Jka3uyS6MUH5zlc2TXR2-3" value="...other key" style="shape=partialRectangle;top=0;left=0;right=0;bottom=1;align=left;verticalAlign=middle;fillColor=none;spacingLeft=34;spacingRight=4;overflow=hidden;rotatable=0;points=[[0,0.5],[1,0.5]];portConstraint=eastwest;dropTarget=0;fontStyle=1;fontSize=12;" parent="Jka3uyS6MUH5zlc2TXR2-2" vertex="1">
          <mxGeometry y="26" width="145" height="30" as="geometry"/>
        </mxCell>
        <mxCell id="Jka3uyS6MUH5zlc2TXR2-4" value="id" style="shape=partialRectangle;top=0;left=0;bottom=0;fillColor=none;align=left;verticalAlign=middle;spacingLeft=4;spacingRight=4;overflow=hidden;rotatable=0;points=[];portConstraint=eastwest;part=1;fontSize=12;" parent="Jka3uyS6MUH5zlc2TXR2-3" vertex="1" connectable="0">
          <mxGeometry width="30" height="30" as="geometry"/>
        </mxCell>
        <mxCell id="Jka3uyS6MUH5zlc2TXR2-5" value="value1" style="shape=partialRectangle;top=0;left=0;right=0;bottom=0;align=left;verticalAlign=bottom;fillColor=none;spacingLeft=34;spacingRight=4;overflow=hidden;rotatable=0;points=[[0,0.5],[1,0.5]];portConstraint=eastwest;dropTarget=0;fontSize=12;" parent="Jka3uyS6MUH5zlc2TXR2-2" vertex="1">
          <mxGeometry y="56" width="145" height="26" as="geometry"/>
        </mxCell>
        <mxCell id="Jka3uyS6MUH5zlc2TXR2-6" value="1" style="shape=partialRectangle;top=0;left=0;bottom=0;fillColor=none;align=left;verticalAlign=top;spacingLeft=4;spacingRight=4;overflow=hidden;rotatable=0;points=[];portConstraint=eastwest;part=1;fontSize=12;" parent="Jka3uyS6MUH5zlc2TXR2-5" vertex="1" connectable="0">
          <mxGeometry width="30" height="26" as="geometry"/>
        </mxCell>
        <mxCell id="Jka3uyS6MUH5zlc2TXR2-7" value="value2" style="shape=partialRectangle;top=0;left=0;right=0;bottom=0;align=left;verticalAlign=top;fillColor=none;spacingLeft=34;spacingRight=4;overflow=hidden;rotatable=0;points=[[0,0.5],[1,0.5]];portConstraint=eastwest;dropTarget=0;fontSize=12;" parent="Jka3uyS6MUH5zlc2TXR2-2" vertex="1">
          <mxGeometry y="82" width="145" height="26" as="geometry"/>
        </mxCell>
        <mxCell id="Jka3uyS6MUH5zlc2TXR2-8" value="2" style="shape=partialRectangle;top=0;left=0;bottom=0;fillColor=none;align=left;verticalAlign=top;spacingLeft=4;spacingRight=4;overflow=hidden;rotatable=0;points=[];portConstraint=eastwest;part=1;fontSize=12;" parent="Jka3uyS6MUH5zlc2TXR2-7" vertex="1" connectable="0">
          <mxGeometry width="30" height="26" as="geometry"/>
        </mxCell>
        <mxCell id="Jka3uyS6MUH5zlc2TXR2-9" value="value3" style="shape=partialRectangle;top=0;left=0;right=0;bottom=0;align=left;verticalAlign=top;fillColor=none;spacingLeft=34;spacingRight=4;overflow=hidden;rotatable=0;points=[[0,0.5],[1,0.5]];portConstraint=eastwest;dropTarget=0;fontSize=12;" parent="Jka3uyS6MUH5zlc2TXR2-2" vertex="1">
          <mxGeometry y="108" width="145" height="26" as="geometry"/>
        </mxCell>
        <mxCell id="Jka3uyS6MUH5zlc2TXR2-10" value="3" style="shape=partialRectangle;top=0;left=0;bottom=0;fillColor=none;align=left;verticalAlign=top;spacingLeft=4;spacingRight=4;overflow=hidden;rotatable=0;points=[];portConstraint=eastwest;part=1;fontSize=12;" parent="Jka3uyS6MUH5zlc2TXR2-9" vertex="1" connectable="0">
          <mxGeometry width="30" height="26" as="geometry"/>
        </mxCell>
        <mxCell id="Jka3uyS6MUH5zlc2TXR2-11" style="edgeStyle=orthogonalEdgeStyle;rounded=0;orthogonalLoop=1;jettySize=auto;html=1;exitX=0;exitY=0.75;exitDx=0;exitDy=0;entryX=1;entryY=0.75;entryDx=0;entryDy=0;startArrow=none;startFill=0;endArrow=classic;endFill=1;fontFamily=Helvetica;fontSize=16;" parent="9vq7s_pTVu-RZlB3cMjH-1" source="Jka3uyS6MUH5zlc2TXR2-12" target="Jka3uyS6MUH5zlc2TXR2-21" edge="1">
          <mxGeometry relative="1" as="geometry"/>
        </mxCell>
        <mxCell id="Jka3uyS6MUH5zlc2TXR2-12" value="" style="rounded=1;whiteSpace=wrap;html=1;fontFamily=Helvetica;comic=0;" parent="9vq7s_pTVu-RZlB3cMjH-1" vertex="1">
          <mxGeometry x="803.5" y="1175.5" width="170" height="140" as="geometry"/>
        </mxCell>
        <mxCell id="Jka3uyS6MUH5zlc2TXR2-13" value="Map(key,value)" style="rounded=1;whiteSpace=wrap;html=1;fontFamily=Helvetica;" parent="9vq7s_pTVu-RZlB3cMjH-1" vertex="1">
          <mxGeometry x="828.5" y="1254.5" width="120" height="24" as="geometry"/>
        </mxCell>
        <mxCell id="Jka3uyS6MUH5zlc2TXR2-14" style="edgeStyle=orthogonalEdgeStyle;rounded=0;orthogonalLoop=1;jettySize=auto;html=1;entryX=1;entryY=0.5;entryDx=0;entryDy=0;fontFamily=Helvetica;" parent="9vq7s_pTVu-RZlB3cMjH-1" source="Jka3uyS6MUH5zlc2TXR2-9" target="Jka3uyS6MUH5zlc2TXR2-13" edge="1">
          <mxGeometry relative="1" as="geometry"/>
        </mxCell>
        <mxCell id="Jka3uyS6MUH5zlc2TXR2-15" style="edgeStyle=orthogonalEdgeStyle;rounded=0;orthogonalLoop=1;jettySize=auto;html=1;fontFamily=Helvetica;startArrow=classic;startFill=1;endArrow=none;endFill=0;" parent="9vq7s_pTVu-RZlB3cMjH-1" source="Jka3uyS6MUH5zlc2TXR2-16" target="Jka3uyS6MUH5zlc2TXR2-7" edge="1">
          <mxGeometry relative="1" as="geometry"/>
        </mxCell>
        <mxCell id="Jka3uyS6MUH5zlc2TXR2-16" value="Map(key,value)" style="rounded=1;whiteSpace=wrap;html=1;fontFamily=Helvetica;" parent="9vq7s_pTVu-RZlB3cMjH-1" vertex="1">
          <mxGeometry x="828.5" y="1228.5" width="120" height="24" as="geometry"/>
        </mxCell>
        <mxCell id="Jka3uyS6MUH5zlc2TXR2-17" value="Map(key,value)" style="rounded=1;whiteSpace=wrap;html=1;fontFamily=Helvetica;" parent="9vq7s_pTVu-RZlB3cMjH-1" vertex="1">
          <mxGeometry x="828.5" y="1201.5" width="120" height="24" as="geometry"/>
        </mxCell>
        <mxCell id="Jka3uyS6MUH5zlc2TXR2-18" style="edgeStyle=orthogonalEdgeStyle;rounded=0;orthogonalLoop=1;jettySize=auto;html=1;entryX=1;entryY=0.5;entryDx=0;entryDy=0;fontFamily=Helvetica;" parent="9vq7s_pTVu-RZlB3cMjH-1" target="Jka3uyS6MUH5zlc2TXR2-17" edge="1">
          <mxGeometry relative="1" as="geometry">
            <mxPoint x="1093.5" y="1213.5" as="sourcePoint"/>
          </mxGeometry>
        </mxCell>
        <mxCell id="Jka3uyS6MUH5zlc2TXR2-19" value="..." style="text;html=1;align=center;verticalAlign=middle;resizable=0;points=[];;autosize=1;fontFamily=Helvetica;fontSize=16;fontStyle=1" parent="9vq7s_pTVu-RZlB3cMjH-1" vertex="1">
          <mxGeometry x="873.5" y="1279.5" width="30" height="20" as="geometry"/>
        </mxCell>
        <mxCell id="Jka3uyS6MUH5zlc2TXR2-20" value="List&amp;lt;Map&amp;lt;String,Object&amp;gt;&amp;gt;" style="text;html=1;align=center;verticalAlign=middle;resizable=0;points=[];;autosize=1;fontSize=16;fontFamily=Helvetica;fontStyle=1" parent="9vq7s_pTVu-RZlB3cMjH-1" vertex="1">
          <mxGeometry x="783.5" y="1135.5" width="210" height="20" as="geometry"/>
        </mxCell>
        <mxCell id="Jka3uyS6MUH5zlc2TXR2-21" value="" style="rounded=1;whiteSpace=wrap;html=1;fontFamily=Helvetica;" parent="9vq7s_pTVu-RZlB3cMjH-1" vertex="1">
          <mxGeometry x="558.5" y="1175.5" width="170" height="140" as="geometry"/>
        </mxCell>
        <mxCell id="Jka3uyS6MUH5zlc2TXR2-22" value="Map(key,value)" style="rounded=1;whiteSpace=wrap;html=1;fontFamily=Helvetica;" parent="9vq7s_pTVu-RZlB3cMjH-1" vertex="1">
          <mxGeometry x="583.5" y="1254.5" width="120" height="24" as="geometry"/>
        </mxCell>
        <mxCell id="Jka3uyS6MUH5zlc2TXR2-23" value="Map(key,value)" style="rounded=1;whiteSpace=wrap;html=1;fontFamily=Helvetica;" parent="9vq7s_pTVu-RZlB3cMjH-1" vertex="1">
          <mxGeometry x="583.5" y="1228.5" width="120" height="24" as="geometry"/>
        </mxCell>
        <mxCell id="Jka3uyS6MUH5zlc2TXR2-24" value="Map(key,value)" style="rounded=1;whiteSpace=wrap;html=1;fontFamily=Helvetica;" parent="9vq7s_pTVu-RZlB3cMjH-1" vertex="1">
          <mxGeometry x="583.5" y="1201.5" width="120" height="24" as="geometry"/>
        </mxCell>
        <mxCell id="Jka3uyS6MUH5zlc2TXR2-25" value="..." style="text;html=1;align=center;verticalAlign=middle;resizable=0;points=[];;autosize=1;fontFamily=Helvetica;fontSize=16;fontStyle=1" parent="9vq7s_pTVu-RZlB3cMjH-1" vertex="1">
          <mxGeometry x="628.5" y="1279.5" width="30" height="20" as="geometry"/>
        </mxCell>
        <mxCell id="Jka3uyS6MUH5zlc2TXR2-26" value="List&amp;lt;Map&amp;lt;String,Object&amp;gt;&amp;gt;" style="text;html=1;align=center;verticalAlign=middle;resizable=0;points=[];;autosize=1;fontSize=16;fontFamily=Helvetica;fontStyle=1" parent="9vq7s_pTVu-RZlB3cMjH-1" vertex="1">
          <mxGeometry x="538.5" y="1135.5" width="210" height="20" as="geometry"/>
        </mxCell>
        <mxCell id="Jka3uyS6MUH5zlc2TXR2-27" value="" style="rounded=1;whiteSpace=wrap;html=1;fontFamily=Helvetica;fontSize=16;" parent="9vq7s_pTVu-RZlB3cMjH-1" vertex="1">
          <mxGeometry x="313.5" y="1135.5" width="190" height="177" as="geometry"/>
        </mxCell>
        <mxCell id="Jka3uyS6MUH5zlc2TXR2-28" value="state = 1&lt;br&gt;messageo = ok" style="text;html=1;strokeColor=none;fillColor=none;align=left;verticalAlign=middle;whiteSpace=wrap;rounded=0;fontFamily=Helvetica;fontSize=16;" parent="9vq7s_pTVu-RZlB3cMjH-1" vertex="1">
          <mxGeometry x="348.5" y="1165.5" width="175" height="20" as="geometry"/>
        </mxCell>
        <mxCell id="Jka3uyS6MUH5zlc2TXR2-29" value="" style="rounded=1;whiteSpace=wrap;html=1;fontFamily=Helvetica;fontSize=16;align=left;" parent="9vq7s_pTVu-RZlB3cMjH-1" vertex="1">
          <mxGeometry x="348.5" y="1221.5" width="130" height="60" as="geometry"/>
        </mxCell>
        <mxCell id="Jka3uyS6MUH5zlc2TXR2-30" value="data" style="text;html=1;align=center;verticalAlign=middle;resizable=0;points=[];;autosize=1;fontSize=16;fontFamily=Helvetica;fillColor=#FFFFFF;" parent="9vq7s_pTVu-RZlB3cMjH-1" vertex="1">
          <mxGeometry x="343.5" y="1212.5" width="50" height="20" as="geometry"/>
        </mxCell>
        <mxCell id="Jka3uyS6MUH5zlc2TXR2-31" value="" style="endArrow=classic;html=1;fontFamily=Helvetica;fontSize=16;exitX=0;exitY=0.5;exitDx=0;exitDy=0;entryX=1;entryY=0.75;entryDx=0;entryDy=0;" parent="9vq7s_pTVu-RZlB3cMjH-1" source="Jka3uyS6MUH5zlc2TXR2-22" target="Jka3uyS6MUH5zlc2TXR2-29" edge="1">
          <mxGeometry width="50" height="50" relative="1" as="geometry">
            <mxPoint x="313.5" y="1395.5" as="sourcePoint"/>
            <mxPoint x="363.5" y="1345.5" as="targetPoint"/>
          </mxGeometry>
        </mxCell>
        <mxCell id="Jka3uyS6MUH5zlc2TXR2-32" value="JsonResult" style="text;html=1;strokeColor=none;fillColor=none;align=center;verticalAlign=middle;whiteSpace=wrap;rounded=0;fontFamily=Helvetica;fontSize=16;fontStyle=1" parent="9vq7s_pTVu-RZlB3cMjH-1" vertex="1">
          <mxGeometry x="388.5" y="1095.5" width="40" height="20" as="geometry"/>
        </mxCell>
        <mxCell id="Jka3uyS6MUH5zlc2TXR2-33" value="DB" style="text;html=1;strokeColor=none;fillColor=none;align=center;verticalAlign=middle;whiteSpace=wrap;rounded=0;fontFamily=Helvetica;fontSize=16;fontStyle=1" parent="9vq7s_pTVu-RZlB3cMjH-1" vertex="1">
          <mxGeometry x="1146" y="1065.5" width="40" height="20" as="geometry"/>
        </mxCell>
        <mxCell id="Jka3uyS6MUH5zlc2TXR2-34" value="" style="endArrow=none;dashed=1;html=1;fontFamily=Helvetica;fontSize=16;" parent="9vq7s_pTVu-RZlB3cMjH-1" edge="1">
          <mxGeometry width="50" height="50" relative="1" as="geometry">
            <mxPoint x="530.5" y="1365.5" as="sourcePoint"/>
            <mxPoint x="530.5" y="1045.5" as="targetPoint"/>
          </mxGeometry>
        </mxCell>
        <mxCell id="Jka3uyS6MUH5zlc2TXR2-35" value="" style="endArrow=none;dashed=1;html=1;fontFamily=Helvetica;fontSize=16;" parent="9vq7s_pTVu-RZlB3cMjH-1" edge="1">
          <mxGeometry width="50" height="50" relative="1" as="geometry">
            <mxPoint x="766.5" y="1366.5" as="sourcePoint"/>
            <mxPoint x="766.5" y="1045.5" as="targetPoint"/>
          </mxGeometry>
        </mxCell>
        <mxCell id="Jka3uyS6MUH5zlc2TXR2-36" value="@Repository" style="text;html=1;strokeColor=none;fillColor=none;align=center;verticalAlign=middle;whiteSpace=wrap;rounded=0;fontFamily=Helvetica;fontSize=16;" parent="9vq7s_pTVu-RZlB3cMjH-1" vertex="1">
          <mxGeometry x="868.5" y="1335.5" width="40" height="20" as="geometry"/>
        </mxCell>
        <mxCell id="Jka3uyS6MUH5zlc2TXR2-37" value="@Service" style="text;html=1;strokeColor=none;fillColor=none;align=center;verticalAlign=middle;whiteSpace=wrap;rounded=0;fontFamily=Helvetica;fontSize=16;" parent="9vq7s_pTVu-RZlB3cMjH-1" vertex="1">
          <mxGeometry x="623.5" y="1335.5" width="40" height="20" as="geometry"/>
        </mxCell>
        <mxCell id="Jka3uyS6MUH5zlc2TXR2-38" value="@Controller" style="text;html=1;strokeColor=none;fillColor=none;align=center;verticalAlign=middle;whiteSpace=wrap;rounded=0;fontFamily=Helvetica;fontSize=16;" parent="9vq7s_pTVu-RZlB3cMjH-1" vertex="1">
          <mxGeometry x="393.5" y="1335.5" width="40" height="20" as="geometry"/>
        </mxCell>
      </root>
    </mxGraphModel>
  </diagram>
  <diagram id="SQE50_Pjr_wZbX74XI5V" name="菜单管理删除操作">
    <mxGraphModel dx="1038" dy="592" grid="1" gridSize="10" guides="1" tooltips="1" connect="1" arrows="1" fold="1" page="1" pageScale="1" pageWidth="1600" pageHeight="900" math="0" shadow="0">
      <root>
        <mxCell id="LKTLvHgYrEQWmwRZHSwM-0"/>
        <mxCell id="LKTLvHgYrEQWmwRZHSwM-1" parent="LKTLvHgYrEQWmwRZHSwM-0"/>
        <mxCell id="95sGOVmlkjLIKL6SG04G-1" value="&lt;h2 style=&quot;margin-left: 28.35pt ; text-indent: -28.35pt ; line-height: 172% ; font-size: 32px&quot;&gt;&lt;span style=&quot;font-size: 32px&quot;&gt;菜单管理删除操作&lt;/span&gt;&lt;/h2&gt;" style="text;html=1;align=center;verticalAlign=middle;resizable=0;points=[];;autosize=1;fontFamily=Helvetica;fontSize=32;" parent="LKTLvHgYrEQWmwRZHSwM-1" vertex="1">
          <mxGeometry x="660" y="10" width="270" height="110" as="geometry"/>
        </mxCell>
        <mxCell id="95sGOVmlkjLIKL6SG04G-3" value="" style="outlineConnect=0;fontColor=#232F3E;gradientColor=none;fillColor=#232F3E;strokeColor=none;dashed=0;verticalLabelPosition=bottom;verticalAlign=top;align=center;html=1;fontSize=12;fontStyle=0;aspect=fixed;pointerEvents=1;shape=mxgraph.aws4.user;comic=0;" parent="LKTLvHgYrEQWmwRZHSwM-1" vertex="1">
          <mxGeometry x="360" y="280" width="78" height="78" as="geometry"/>
        </mxCell>
        <mxCell id="95sGOVmlkjLIKL6SG04G-4" style="rounded=0;orthogonalLoop=1;jettySize=auto;html=1;startFill=0;endFill=1;strokeWidth=2;fontSize=14;" parent="LKTLvHgYrEQWmwRZHSwM-1" source="95sGOVmlkjLIKL6SG04G-28" edge="1">
          <mxGeometry relative="1" as="geometry">
            <mxPoint x="600" y="960" as="targetPoint"/>
            <Array as="points"/>
          </mxGeometry>
        </mxCell>
        <mxCell id="95sGOVmlkjLIKL6SG04G-5" value="PageController" style="rounded=1;whiteSpace=wrap;html=1;comic=0;fillColor=#FFFFFF;fontFamily=Helvetica;fontSize=14;align=center;strokeWidth=2;" parent="LKTLvHgYrEQWmwRZHSwM-1" vertex="1">
          <mxGeometry x="540" y="298" width="120" height="60" as="geometry"/>
        </mxCell>
        <mxCell id="95sGOVmlkjLIKL6SG04G-6" value="menu/menu_list" style="endArrow=classic;html=1;strokeWidth=2;fontSize=14;" parent="LKTLvHgYrEQWmwRZHSwM-1" edge="1">
          <mxGeometry width="50" height="50" relative="1" as="geometry">
            <mxPoint x="399" y="400" as="sourcePoint"/>
            <mxPoint x="599.9999999999998" y="400" as="targetPoint"/>
          </mxGeometry>
        </mxCell>
        <mxCell id="95sGOVmlkjLIKL6SG04G-7" value="menu_list.html" style="endArrow=classic;html=1;strokeWidth=2;fontSize=14;" parent="LKTLvHgYrEQWmwRZHSwM-1" edge="1">
          <mxGeometry width="50" height="50" relative="1" as="geometry">
            <mxPoint x="599.9999999999998" y="440" as="sourcePoint"/>
            <mxPoint x="399.9999999999998" y="440" as="targetPoint"/>
          </mxGeometry>
        </mxCell>
        <mxCell id="95sGOVmlkjLIKL6SG04G-8" value="update UI" style="endArrow=classic;html=1;strokeWidth=2;fontSize=12;edgeStyle=elbowEdgeStyle;" parent="LKTLvHgYrEQWmwRZHSwM-1" edge="1">
          <mxGeometry width="50" height="50" relative="1" as="geometry">
            <mxPoint x="399" y="460" as="sourcePoint"/>
            <mxPoint x="399" y="500" as="targetPoint"/>
            <Array as="points">
              <mxPoint x="440" y="480"/>
            </Array>
          </mxGeometry>
        </mxCell>
        <mxCell id="95sGOVmlkjLIKL6SG04G-9" value="menu/doDeleteObject" style="endArrow=classic;html=1;strokeWidth=2;fontSize=14;" parent="LKTLvHgYrEQWmwRZHSwM-1" edge="1">
          <mxGeometry x="0.5" width="50" height="50" relative="1" as="geometry">
            <mxPoint x="399.9999999999998" y="520" as="sourcePoint"/>
            <mxPoint x="800" y="520" as="targetPoint"/>
            <mxPoint as="offset"/>
          </mxGeometry>
        </mxCell>
        <mxCell id="95sGOVmlkjLIKL6SG04G-10" style="rounded=0;orthogonalLoop=1;jettySize=auto;html=1;startFill=0;endFill=1;strokeWidth=2;fontSize=14;" parent="LKTLvHgYrEQWmwRZHSwM-1" source="95sGOVmlkjLIKL6SG04G-32" edge="1">
          <mxGeometry relative="1" as="geometry">
            <mxPoint x="800" y="960" as="targetPoint"/>
            <Array as="points"/>
          </mxGeometry>
        </mxCell>
        <mxCell id="95sGOVmlkjLIKL6SG04G-11" value="SysMenuController" style="rounded=1;whiteSpace=wrap;html=1;comic=0;fillColor=#FFFFFF;fontFamily=Helvetica;fontSize=14;align=center;strokeWidth=2;" parent="LKTLvHgYrEQWmwRZHSwM-1" vertex="1">
          <mxGeometry x="725" y="298" width="150" height="60" as="geometry"/>
        </mxCell>
        <mxCell id="95sGOVmlkjLIKL6SG04G-12" style="rounded=0;orthogonalLoop=1;jettySize=auto;html=1;startFill=0;endFill=1;strokeWidth=2;fontSize=14;" parent="LKTLvHgYrEQWmwRZHSwM-1" source="95sGOVmlkjLIKL6SG04G-34" edge="1">
          <mxGeometry relative="1" as="geometry">
            <mxPoint x="1000" y="960" as="targetPoint"/>
            <Array as="points"/>
          </mxGeometry>
        </mxCell>
        <mxCell id="95sGOVmlkjLIKL6SG04G-13" style="edgeStyle=elbowEdgeStyle;rounded=0;orthogonalLoop=1;jettySize=auto;html=1;entryX=0.5;entryY=1;entryDx=0;entryDy=0;startFill=0;endFill=1;strokeWidth=2;fontSize=14;" parent="LKTLvHgYrEQWmwRZHSwM-1" source="95sGOVmlkjLIKL6SG04G-14" target="95sGOVmlkjLIKL6SG04G-18" edge="1">
          <mxGeometry relative="1" as="geometry"/>
        </mxCell>
        <mxCell id="95sGOVmlkjLIKL6SG04G-14" value="SysMenuServiceImpl" style="rounded=1;whiteSpace=wrap;html=1;comic=0;fillColor=#FFFFFF;fontFamily=Helvetica;fontSize=14;align=center;strokeWidth=2;" parent="LKTLvHgYrEQWmwRZHSwM-1" vertex="1">
          <mxGeometry x="926" y="298" width="150" height="60" as="geometry"/>
        </mxCell>
        <mxCell id="95sGOVmlkjLIKL6SG04G-15" style="rounded=0;orthogonalLoop=1;jettySize=auto;html=1;startFill=0;endFill=1;strokeWidth=2;fontSize=14;" parent="LKTLvHgYrEQWmwRZHSwM-1" source="95sGOVmlkjLIKL6SG04G-53" edge="1">
          <mxGeometry relative="1" as="geometry">
            <mxPoint x="1200" y="960" as="targetPoint"/>
            <Array as="points"/>
          </mxGeometry>
        </mxCell>
        <mxCell id="95sGOVmlkjLIKL6SG04G-16" style="edgeStyle=elbowEdgeStyle;rounded=0;orthogonalLoop=1;jettySize=auto;html=1;entryX=0.5;entryY=1;entryDx=0;entryDy=0;startFill=0;endFill=1;strokeWidth=2;fontSize=14;" parent="LKTLvHgYrEQWmwRZHSwM-1" source="95sGOVmlkjLIKL6SG04G-17" target="95sGOVmlkjLIKL6SG04G-19" edge="1">
          <mxGeometry relative="1" as="geometry"/>
        </mxCell>
        <mxCell id="95sGOVmlkjLIKL6SG04G-17" value="$Proxy36" style="rounded=1;whiteSpace=wrap;html=1;comic=0;fillColor=#FFFFFF;fontFamily=Helvetica;fontSize=14;align=center;strokeWidth=2;dashed=1;" parent="LKTLvHgYrEQWmwRZHSwM-1" vertex="1">
          <mxGeometry x="1140" y="298" width="120" height="60" as="geometry"/>
        </mxCell>
        <mxCell id="95sGOVmlkjLIKL6SG04G-18" value="&lt;font style=&quot;font-size: 14px;&quot;&gt;SysMenuService&lt;/font&gt;" style="ellipse;whiteSpace=wrap;html=1;rounded=1;comic=0;strokeWidth=2;fillColor=#FFFFFF;fontSize=14;" parent="LKTLvHgYrEQWmwRZHSwM-1" vertex="1">
          <mxGeometry x="923" y="180" width="156" height="70" as="geometry"/>
        </mxCell>
        <mxCell id="95sGOVmlkjLIKL6SG04G-19" value="&lt;font style=&quot;font-size: 14px&quot;&gt;SysMenuDao&lt;/font&gt;" style="ellipse;whiteSpace=wrap;html=1;rounded=1;comic=0;strokeWidth=2;fillColor=#FFFFFF;fontSize=14;" parent="LKTLvHgYrEQWmwRZHSwM-1" vertex="1">
          <mxGeometry x="1122" y="180" width="156" height="70" as="geometry"/>
        </mxCell>
        <mxCell id="95sGOVmlkjLIKL6SG04G-20" value="deleteObject(id)" style="endArrow=classic;html=1;strokeWidth=2;fontSize=14;" parent="LKTLvHgYrEQWmwRZHSwM-1" edge="1">
          <mxGeometry width="50" height="50" relative="1" as="geometry">
            <mxPoint x="800" y="560" as="sourcePoint"/>
            <mxPoint x="1000" y="560" as="targetPoint"/>
          </mxGeometry>
        </mxCell>
        <mxCell id="95sGOVmlkjLIKL6SG04G-21" value="getChildCount(id)" style="endArrow=classic;html=1;strokeWidth=2;fontSize=14;" parent="LKTLvHgYrEQWmwRZHSwM-1" edge="1">
          <mxGeometry width="50" height="50" relative="1" as="geometry">
            <mxPoint x="1000" y="600" as="sourcePoint"/>
            <mxPoint x="1200" y="600" as="targetPoint"/>
          </mxGeometry>
        </mxCell>
        <mxCell id="95sGOVmlkjLIKL6SG04G-22" value="Count==0&lt;br&gt;deleteObject(id)" style="endArrow=classic;html=1;strokeWidth=2;fontSize=14;" parent="LKTLvHgYrEQWmwRZHSwM-1" edge="1">
          <mxGeometry width="50" height="50" relative="1" as="geometry">
            <mxPoint x="1200" y="640" as="sourcePoint"/>
            <mxPoint x="1000" y="640" as="targetPoint"/>
          </mxGeometry>
        </mxCell>
        <mxCell id="95sGOVmlkjLIKL6SG04G-25" value="update UI" style="endArrow=classic;html=1;strokeWidth=2;fontSize=12;edgeStyle=elbowEdgeStyle;" parent="LKTLvHgYrEQWmwRZHSwM-1" edge="1">
          <mxGeometry width="50" height="50" relative="1" as="geometry">
            <mxPoint x="399" y="859.5" as="sourcePoint"/>
            <mxPoint x="399" y="899.5" as="targetPoint"/>
            <Array as="points">
              <mxPoint x="440" y="879.5"/>
            </Array>
          </mxGeometry>
        </mxCell>
        <mxCell id="95sGOVmlkjLIKL6SG04G-26" value="" style="rounded=0;whiteSpace=wrap;html=1;comic=0;strokeWidth=2;fillColor=#000000;fontSize=14;" parent="LKTLvHgYrEQWmwRZHSwM-1" vertex="1">
          <mxGeometry x="394" y="390" width="10" height="19" as="geometry"/>
        </mxCell>
        <mxCell id="95sGOVmlkjLIKL6SG04G-27" style="edgeStyle=orthogonalEdgeStyle;rounded=0;orthogonalLoop=1;jettySize=auto;html=1;startArrow=none;startFill=0;endArrow=none;endFill=0;fontFamily=Helvetica;fontSize=32;strokeWidth=2;" parent="LKTLvHgYrEQWmwRZHSwM-1" source="95sGOVmlkjLIKL6SG04G-3" target="95sGOVmlkjLIKL6SG04G-26" edge="1">
          <mxGeometry relative="1" as="geometry">
            <mxPoint x="399" y="840" as="targetPoint"/>
            <mxPoint x="399" y="357.9353233830843" as="sourcePoint"/>
          </mxGeometry>
        </mxCell>
        <mxCell id="95sGOVmlkjLIKL6SG04G-28" value="" style="rounded=0;whiteSpace=wrap;html=1;comic=0;strokeWidth=2;fillColor=#000000;fontSize=14;" parent="LKTLvHgYrEQWmwRZHSwM-1" vertex="1">
          <mxGeometry x="595" y="400" width="10" height="40" as="geometry"/>
        </mxCell>
        <mxCell id="95sGOVmlkjLIKL6SG04G-29" style="rounded=0;orthogonalLoop=1;jettySize=auto;html=1;startFill=0;endFill=0;strokeWidth=2;fontSize=14;endArrow=none;" parent="LKTLvHgYrEQWmwRZHSwM-1" source="95sGOVmlkjLIKL6SG04G-5" target="95sGOVmlkjLIKL6SG04G-28" edge="1">
          <mxGeometry relative="1" as="geometry">
            <mxPoint x="600" y="840" as="targetPoint"/>
            <mxPoint x="600" y="358" as="sourcePoint"/>
            <Array as="points"/>
          </mxGeometry>
        </mxCell>
        <mxCell id="95sGOVmlkjLIKL6SG04G-30" value="" style="rounded=0;whiteSpace=wrap;html=1;comic=0;strokeWidth=2;fillColor=#000000;fontSize=14;" parent="LKTLvHgYrEQWmwRZHSwM-1" vertex="1">
          <mxGeometry x="394" y="441" width="10" height="79" as="geometry"/>
        </mxCell>
        <mxCell id="95sGOVmlkjLIKL6SG04G-31" style="edgeStyle=orthogonalEdgeStyle;rounded=0;orthogonalLoop=1;jettySize=auto;html=1;startArrow=none;startFill=0;endArrow=none;endFill=0;fontFamily=Helvetica;fontSize=32;strokeWidth=2;" parent="LKTLvHgYrEQWmwRZHSwM-1" source="95sGOVmlkjLIKL6SG04G-26" target="95sGOVmlkjLIKL6SG04G-30" edge="1">
          <mxGeometry relative="1" as="geometry">
            <mxPoint x="399" y="840" as="targetPoint"/>
            <mxPoint x="399" y="409" as="sourcePoint"/>
          </mxGeometry>
        </mxCell>
        <mxCell id="95sGOVmlkjLIKL6SG04G-32" value="" style="rounded=0;whiteSpace=wrap;html=1;comic=0;strokeWidth=2;fillColor=#000000;fontSize=14;" parent="LKTLvHgYrEQWmwRZHSwM-1" vertex="1">
          <mxGeometry x="795" y="520" width="10" height="320" as="geometry"/>
        </mxCell>
        <mxCell id="95sGOVmlkjLIKL6SG04G-33" style="rounded=0;orthogonalLoop=1;jettySize=auto;html=1;startFill=0;endFill=0;strokeWidth=2;fontSize=14;endArrow=none;" parent="LKTLvHgYrEQWmwRZHSwM-1" source="95sGOVmlkjLIKL6SG04G-11" target="95sGOVmlkjLIKL6SG04G-32" edge="1">
          <mxGeometry relative="1" as="geometry">
            <mxPoint x="800" y="840" as="targetPoint"/>
            <Array as="points"/>
            <mxPoint x="800" y="357.9999999999998" as="sourcePoint"/>
          </mxGeometry>
        </mxCell>
        <mxCell id="95sGOVmlkjLIKL6SG04G-34" value="" style="rounded=0;whiteSpace=wrap;html=1;comic=0;strokeWidth=2;fillColor=#000000;fontSize=14;" parent="LKTLvHgYrEQWmwRZHSwM-1" vertex="1">
          <mxGeometry x="996" y="560" width="10" height="240" as="geometry"/>
        </mxCell>
        <mxCell id="95sGOVmlkjLIKL6SG04G-35" style="rounded=0;orthogonalLoop=1;jettySize=auto;html=1;startFill=0;endFill=0;strokeWidth=2;fontSize=14;endArrow=none;" parent="LKTLvHgYrEQWmwRZHSwM-1" source="95sGOVmlkjLIKL6SG04G-14" target="95sGOVmlkjLIKL6SG04G-34" edge="1">
          <mxGeometry relative="1" as="geometry">
            <mxPoint x="1000" y="840" as="targetPoint"/>
            <Array as="points"/>
            <mxPoint x="1000.94140625" y="357.9999999999998" as="sourcePoint"/>
          </mxGeometry>
        </mxCell>
        <mxCell id="95sGOVmlkjLIKL6SG04G-36" value="" style="rounded=0;whiteSpace=wrap;html=1;comic=0;strokeWidth=2;fillColor=#000000;fontSize=14;" parent="LKTLvHgYrEQWmwRZHSwM-1" vertex="1">
          <mxGeometry x="1195" y="600" width="10" height="40" as="geometry"/>
        </mxCell>
        <mxCell id="95sGOVmlkjLIKL6SG04G-37" style="rounded=0;orthogonalLoop=1;jettySize=auto;html=1;startFill=0;endFill=0;strokeWidth=2;fontSize=14;endArrow=none;" parent="LKTLvHgYrEQWmwRZHSwM-1" source="95sGOVmlkjLIKL6SG04G-17" target="95sGOVmlkjLIKL6SG04G-36" edge="1">
          <mxGeometry relative="1" as="geometry">
            <mxPoint x="1200" y="840" as="targetPoint"/>
            <Array as="points"/>
            <mxPoint x="1200" y="357.9999999999998" as="sourcePoint"/>
          </mxGeometry>
        </mxCell>
        <mxCell id="95sGOVmlkjLIKL6SG04G-60" value="" style="edgeStyle=none;orthogonalLoop=1;jettySize=auto;html=1;startArrow=none;startFill=0;endArrow=classic;endFill=1;strokeWidth=2;fontSize=14;" parent="LKTLvHgYrEQWmwRZHSwM-1" source="95sGOVmlkjLIKL6SG04G-38" edge="1">
          <mxGeometry relative="1" as="geometry">
            <mxPoint x="399" y="960" as="targetPoint"/>
          </mxGeometry>
        </mxCell>
        <mxCell id="95sGOVmlkjLIKL6SG04G-38" value="" style="rounded=0;whiteSpace=wrap;html=1;comic=0;strokeWidth=2;fillColor=#000000;fontSize=14;" parent="LKTLvHgYrEQWmwRZHSwM-1" vertex="1">
          <mxGeometry x="394" y="839.5" width="10" height="60" as="geometry"/>
        </mxCell>
        <mxCell id="95sGOVmlkjLIKL6SG04G-39" style="edgeStyle=orthogonalEdgeStyle;rounded=0;orthogonalLoop=1;jettySize=auto;html=1;startArrow=none;startFill=0;endArrow=none;endFill=0;fontFamily=Helvetica;fontSize=32;strokeWidth=2;" parent="LKTLvHgYrEQWmwRZHSwM-1" source="95sGOVmlkjLIKL6SG04G-30" target="95sGOVmlkjLIKL6SG04G-38" edge="1">
          <mxGeometry relative="1" as="geometry">
            <mxPoint x="399" y="840" as="targetPoint"/>
            <mxPoint x="399.0588235294117" y="520" as="sourcePoint"/>
          </mxGeometry>
        </mxCell>
        <mxCell id="95sGOVmlkjLIKL6SG04G-43" style="edgeStyle=elbowEdgeStyle;rounded=0;orthogonalLoop=1;jettySize=auto;html=1;entryX=0.5;entryY=1;entryDx=0;entryDy=0;startFill=0;endFill=1;strokeWidth=2;fontSize=14;" parent="LKTLvHgYrEQWmwRZHSwM-1" source="95sGOVmlkjLIKL6SG04G-44" target="95sGOVmlkjLIKL6SG04G-45" edge="1">
          <mxGeometry relative="1" as="geometry"/>
        </mxCell>
        <mxCell id="95sGOVmlkjLIKL6SG04G-44" value="$Proxy38" style="rounded=1;whiteSpace=wrap;html=1;comic=0;fillColor=#FFFFFF;fontFamily=Helvetica;fontSize=14;align=center;strokeWidth=2;dashed=1;" parent="LKTLvHgYrEQWmwRZHSwM-1" vertex="1">
          <mxGeometry x="1338" y="298" width="120" height="60" as="geometry"/>
        </mxCell>
        <mxCell id="95sGOVmlkjLIKL6SG04G-45" value="&lt;font style=&quot;font-size: 14px&quot;&gt;SysRoleMenuDao&lt;/font&gt;" style="ellipse;whiteSpace=wrap;html=1;rounded=1;comic=0;strokeWidth=2;fillColor=#FFFFFF;fontSize=14;" parent="LKTLvHgYrEQWmwRZHSwM-1" vertex="1">
          <mxGeometry x="1320" y="180" width="156" height="70" as="geometry"/>
        </mxCell>
        <mxCell id="95sGOVmlkjLIKL6SG04G-47" style="rounded=0;orthogonalLoop=1;jettySize=auto;html=1;startFill=0;endFill=1;strokeWidth=2;fontSize=14;endArrow=classic;" parent="LKTLvHgYrEQWmwRZHSwM-1" source="95sGOVmlkjLIKL6SG04G-44" edge="1">
          <mxGeometry relative="1" as="geometry">
            <mxPoint x="1400" y="960" as="targetPoint"/>
            <Array as="points"/>
            <mxPoint x="1398" y="357.9999999999998" as="sourcePoint"/>
          </mxGeometry>
        </mxCell>
        <mxCell id="95sGOVmlkjLIKL6SG04G-48" value="Count!=0&lt;br&gt;deleteObjectsByMenuId(id)" style="endArrow=classic;html=1;strokeWidth=2;fontSize=14;" parent="LKTLvHgYrEQWmwRZHSwM-1" edge="1">
          <mxGeometry x="0.5" y="20" width="50" height="50" relative="1" as="geometry">
            <mxPoint x="1000" y="680" as="sourcePoint"/>
            <mxPoint x="1400" y="680" as="targetPoint"/>
            <mxPoint as="offset"/>
          </mxGeometry>
        </mxCell>
        <mxCell id="95sGOVmlkjLIKL6SG04G-49" value="" style="endArrow=classic;html=1;strokeWidth=2;fontSize=14;" parent="LKTLvHgYrEQWmwRZHSwM-1" edge="1">
          <mxGeometry width="50" height="50" relative="1" as="geometry">
            <mxPoint x="1000" y="720" as="sourcePoint"/>
            <mxPoint x="1200" y="720" as="targetPoint"/>
          </mxGeometry>
        </mxCell>
        <mxCell id="95sGOVmlkjLIKL6SG04G-52" value="deleteObject(id)" style="text;html=1;align=center;verticalAlign=middle;resizable=0;points=[];;labelBackgroundColor=#ffffff;fontSize=14;" parent="95sGOVmlkjLIKL6SG04G-49" vertex="1" connectable="0">
          <mxGeometry x="0.15" relative="1" as="geometry">
            <mxPoint x="-15" as="offset"/>
          </mxGeometry>
        </mxCell>
        <mxCell id="95sGOVmlkjLIKL6SG04G-53" value="" style="rounded=0;whiteSpace=wrap;html=1;comic=0;strokeWidth=2;fillColor=#000000;fontSize=14;" parent="LKTLvHgYrEQWmwRZHSwM-1" vertex="1">
          <mxGeometry x="1197" y="720" width="10" height="40" as="geometry"/>
        </mxCell>
        <mxCell id="95sGOVmlkjLIKL6SG04G-54" style="rounded=0;orthogonalLoop=1;jettySize=auto;html=1;startFill=0;endFill=0;strokeWidth=2;fontSize=14;endArrow=none;" parent="LKTLvHgYrEQWmwRZHSwM-1" source="95sGOVmlkjLIKL6SG04G-36" target="95sGOVmlkjLIKL6SG04G-53" edge="1">
          <mxGeometry relative="1" as="geometry">
            <mxPoint x="1200" y="840" as="targetPoint"/>
            <Array as="points"/>
            <mxPoint x="1200" y="640" as="sourcePoint"/>
          </mxGeometry>
        </mxCell>
        <mxCell id="95sGOVmlkjLIKL6SG04G-55" value="rows" style="endArrow=classic;html=1;strokeWidth=2;fontSize=14;" parent="LKTLvHgYrEQWmwRZHSwM-1" edge="1">
          <mxGeometry width="50" height="50" relative="1" as="geometry">
            <mxPoint x="1200" y="760" as="sourcePoint"/>
            <mxPoint x="1000" y="760" as="targetPoint"/>
          </mxGeometry>
        </mxCell>
        <mxCell id="95sGOVmlkjLIKL6SG04G-57" value="rows" style="endArrow=classic;html=1;strokeWidth=2;fontSize=14;" parent="LKTLvHgYrEQWmwRZHSwM-1" edge="1">
          <mxGeometry width="50" height="50" relative="1" as="geometry">
            <mxPoint x="996" y="799" as="sourcePoint"/>
            <mxPoint x="804" y="799" as="targetPoint"/>
          </mxGeometry>
        </mxCell>
        <mxCell id="95sGOVmlkjLIKL6SG04G-58" value="JsonResult" style="endArrow=classic;html=1;strokeWidth=2;fontSize=14;" parent="LKTLvHgYrEQWmwRZHSwM-1" edge="1">
          <mxGeometry x="0.4987" width="50" height="50" relative="1" as="geometry">
            <mxPoint x="799" y="839.5" as="sourcePoint"/>
            <mxPoint x="400" y="840" as="targetPoint"/>
            <mxPoint as="offset"/>
          </mxGeometry>
        </mxCell>
        <mxCell id="95sGOVmlkjLIKL6SG04G-61" value="@Mapper" style="text;html=1;strokeColor=none;fillColor=none;align=center;verticalAlign=middle;whiteSpace=wrap;rounded=0;comic=0;fontSize=14;" parent="LKTLvHgYrEQWmwRZHSwM-1" vertex="1">
          <mxGeometry x="1180" y="150" width="40" height="20" as="geometry"/>
        </mxCell>
        <mxCell id="95sGOVmlkjLIKL6SG04G-62" value="@Mapper" style="text;html=1;strokeColor=none;fillColor=none;align=center;verticalAlign=middle;whiteSpace=wrap;rounded=0;comic=0;fontSize=14;" parent="LKTLvHgYrEQWmwRZHSwM-1" vertex="1">
          <mxGeometry x="1378" y="150" width="40" height="20" as="geometry"/>
        </mxCell>
        <mxCell id="95sGOVmlkjLIKL6SG04G-63" value="@Service" style="text;html=1;strokeColor=none;fillColor=none;align=center;verticalAlign=middle;whiteSpace=wrap;rounded=0;comic=0;fontSize=14;" parent="LKTLvHgYrEQWmwRZHSwM-1" vertex="1">
          <mxGeometry x="940" y="270" width="40" height="20" as="geometry"/>
        </mxCell>
      </root>
    </mxGraphModel>
  </diagram>
  <diagram id="VazOIqafZjHbIkn699cY" name="第 3 页">
    <mxGraphModel dx="494" dy="282" grid="1" gridSize="10" guides="1" tooltips="1" connect="1" arrows="1" fold="1" page="1" pageScale="1" pageWidth="1600" pageHeight="900" math="0" shadow="0">
      <root>
        <mxCell id="jaYtSlw9XoslfYvVKK2n-0"/>
        <mxCell id="jaYtSlw9XoslfYvVKK2n-1" parent="jaYtSlw9XoslfYvVKK2n-0"/>
        <mxCell id="jaYtSlw9XoslfYvVKK2n-2" value="部门-日志-用户-角色-菜单 表关系" style="text;html=1;strokeColor=none;fillColor=none;align=center;verticalAlign=middle;whiteSpace=wrap;rounded=0;" parent="jaYtSlw9XoslfYvVKK2n-1" vertex="1">
          <mxGeometry x="320" y="50" width="240" height="40" as="geometry"/>
        </mxCell>
        <mxCell id="jaYtSlw9XoslfYvVKK2n-21" value="自关联" style="edgeStyle=orthogonalEdgeStyle;rounded=0;orthogonalLoop=1;jettySize=auto;html=1;entryX=1.006;entryY=0.606;entryDx=0;entryDy=0;entryPerimeter=0;" parent="jaYtSlw9XoslfYvVKK2n-1" source="jaYtSlw9XoslfYvVKK2n-9" target="jaYtSlw9XoslfYvVKK2n-9" edge="1">
          <mxGeometry x="0.3266" y="30" relative="1" as="geometry">
            <mxPoint x="250" y="60" as="targetPoint"/>
            <mxPoint as="offset"/>
            <Array as="points">
              <mxPoint x="250" y="120"/>
              <mxPoint x="320" y="120"/>
              <mxPoint x="320" y="177"/>
            </Array>
          </mxGeometry>
        </mxCell>
        <mxCell id="jaYtSlw9XoslfYvVKK2n-23" value="" style="edgeStyle=orthogonalEdgeStyle;rounded=0;orthogonalLoop=1;jettySize=auto;html=1;entryX=0.5;entryY=0;entryDx=0;entryDy=0;" parent="jaYtSlw9XoslfYvVKK2n-1" source="jaYtSlw9XoslfYvVKK2n-9" target="jaYtSlw9XoslfYvVKK2n-10" edge="1">
          <mxGeometry relative="1" as="geometry">
            <Array as="points">
              <mxPoint x="250" y="220"/>
              <mxPoint x="250" y="220"/>
            </Array>
          </mxGeometry>
        </mxCell>
        <mxCell id="jaYtSlw9XoslfYvVKK2n-25" value="1" style="text;html=1;align=center;verticalAlign=middle;resizable=0;points=[];;labelBackgroundColor=#ffffff;" parent="jaYtSlw9XoslfYvVKK2n-23" vertex="1" connectable="0">
          <mxGeometry x="-0.3333" y="12" relative="1" as="geometry">
            <mxPoint x="-12" y="-10" as="offset"/>
          </mxGeometry>
        </mxCell>
        <mxCell id="jaYtSlw9XoslfYvVKK2n-26" value="n" style="text;html=1;align=center;verticalAlign=middle;resizable=0;points=[];;labelBackgroundColor=#ffffff;" parent="jaYtSlw9XoslfYvVKK2n-23" vertex="1" connectable="0">
          <mxGeometry x="0.3086" y="-2" relative="1" as="geometry">
            <mxPoint x="2" y="1" as="offset"/>
          </mxGeometry>
        </mxCell>
        <mxCell id="jaYtSlw9XoslfYvVKK2n-9" value="&lt;br&gt;部门" style="shape=internalStorage;whiteSpace=wrap;html=1;backgroundOutline=1;" parent="jaYtSlw9XoslfYvVKK2n-1" vertex="1">
          <mxGeometry x="200" y="140" width="100" height="60" as="geometry"/>
        </mxCell>
        <mxCell id="jaYtSlw9XoslfYvVKK2n-13" value="" style="rounded=0;orthogonalLoop=1;jettySize=auto;html=1;exitX=1.016;exitY=0.171;exitDx=0;exitDy=0;exitPerimeter=0;entryX=0;entryY=0.167;entryDx=0;entryDy=0;entryPerimeter=0;" parent="jaYtSlw9XoslfYvVKK2n-1" target="jaYtSlw9XoslfYvVKK2n-12" edge="1">
          <mxGeometry relative="1" as="geometry">
            <mxPoint x="299.7222222222222" y="270.27777777777777" as="sourcePoint"/>
            <mxPoint x="370" y="270" as="targetPoint"/>
          </mxGeometry>
        </mxCell>
        <mxCell id="jaYtSlw9XoslfYvVKK2n-31" value="1" style="text;html=1;align=center;verticalAlign=middle;resizable=0;points=[];;labelBackgroundColor=#ffffff;" parent="jaYtSlw9XoslfYvVKK2n-13" vertex="1" connectable="0">
          <mxGeometry x="-0.6603" relative="1" as="geometry">
            <mxPoint x="6.5" as="offset"/>
          </mxGeometry>
        </mxCell>
        <mxCell id="jaYtSlw9XoslfYvVKK2n-32" value="n" style="text;html=1;align=center;verticalAlign=middle;resizable=0;points=[];;labelBackgroundColor=#ffffff;" parent="jaYtSlw9XoslfYvVKK2n-13" vertex="1" connectable="0">
          <mxGeometry x="0.509" relative="1" as="geometry">
            <mxPoint as="offset"/>
          </mxGeometry>
        </mxCell>
        <mxCell id="jaYtSlw9XoslfYvVKK2n-10" value="&lt;br&gt;用户" style="shape=internalStorage;whiteSpace=wrap;html=1;backgroundOutline=1;" parent="jaYtSlw9XoslfYvVKK2n-1" vertex="1">
          <mxGeometry x="200" y="260" width="100" height="60" as="geometry"/>
        </mxCell>
        <mxCell id="jaYtSlw9XoslfYvVKK2n-12" value="&lt;br&gt;角色" style="shape=internalStorage;whiteSpace=wrap;html=1;backgroundOutline=1;" parent="jaYtSlw9XoslfYvVKK2n-1" vertex="1">
          <mxGeometry x="380" y="260" width="100" height="60" as="geometry"/>
        </mxCell>
        <mxCell id="jaYtSlw9XoslfYvVKK2n-43" value="自关联" style="edgeStyle=orthogonalEdgeStyle;rounded=0;orthogonalLoop=1;jettySize=auto;html=1;entryX=0.5;entryY=1;entryDx=0;entryDy=0;exitX=1;exitY=0.5;exitDx=0;exitDy=0;" parent="jaYtSlw9XoslfYvVKK2n-1" source="jaYtSlw9XoslfYvVKK2n-14" target="jaYtSlw9XoslfYvVKK2n-14" edge="1">
          <mxGeometry x="0.2482" relative="1" as="geometry">
            <mxPoint x="740" y="290" as="targetPoint"/>
            <mxPoint as="offset"/>
          </mxGeometry>
        </mxCell>
        <mxCell id="jaYtSlw9XoslfYvVKK2n-45" value="资源" style="edgeStyle=orthogonalEdgeStyle;curved=1;rounded=0;orthogonalLoop=1;jettySize=auto;html=1;entryX=0.5;entryY=0;entryDx=0;entryDy=0;exitX=0.5;exitY=0;exitDx=0;exitDy=0;dashed=1;" parent="jaYtSlw9XoslfYvVKK2n-1" source="jaYtSlw9XoslfYvVKK2n-14" target="jaYtSlw9XoslfYvVKK2n-12" edge="1">
          <mxGeometry relative="1" as="geometry">
            <Array as="points">
              <mxPoint x="610" y="220"/>
              <mxPoint x="430" y="220"/>
            </Array>
          </mxGeometry>
        </mxCell>
        <mxCell id="jaYtSlw9XoslfYvVKK2n-50" value="many2many" style="edgeStyle=orthogonalEdgeStyle;curved=1;rounded=0;orthogonalLoop=1;jettySize=auto;html=1;dashed=1;exitX=0.5;exitY=1;exitDx=0;exitDy=0;" parent="jaYtSlw9XoslfYvVKK2n-1" source="jaYtSlw9XoslfYvVKK2n-14" target="jaYtSlw9XoslfYvVKK2n-12" edge="1">
          <mxGeometry relative="1" as="geometry">
            <Array as="points">
              <mxPoint x="610" y="350"/>
              <mxPoint x="430" y="350"/>
            </Array>
          </mxGeometry>
        </mxCell>
        <mxCell id="jaYtSlw9XoslfYvVKK2n-14" value="&lt;br&gt;菜单" style="shape=internalStorage;whiteSpace=wrap;html=1;backgroundOutline=1;" parent="jaYtSlw9XoslfYvVKK2n-1" vertex="1">
          <mxGeometry x="560" y="260" width="100" height="60" as="geometry"/>
        </mxCell>
        <mxCell id="jaYtSlw9XoslfYvVKK2n-11" value="&lt;br&gt;日志" style="shape=internalStorage;whiteSpace=wrap;html=1;backgroundOutline=1;" parent="jaYtSlw9XoslfYvVKK2n-1" vertex="1">
          <mxGeometry x="200" y="380" width="100" height="60" as="geometry"/>
        </mxCell>
        <mxCell id="jaYtSlw9XoslfYvVKK2n-27" value="" style="edgeStyle=orthogonalEdgeStyle;rounded=0;orthogonalLoop=1;jettySize=auto;html=1;entryX=0.5;entryY=0;entryDx=0;entryDy=0;" parent="jaYtSlw9XoslfYvVKK2n-1" edge="1">
          <mxGeometry relative="1" as="geometry">
            <mxPoint x="250" y="320" as="sourcePoint"/>
            <mxPoint x="250" y="380" as="targetPoint"/>
            <Array as="points">
              <mxPoint x="250" y="340"/>
              <mxPoint x="250" y="340"/>
            </Array>
          </mxGeometry>
        </mxCell>
        <mxCell id="jaYtSlw9XoslfYvVKK2n-28" value="1" style="text;html=1;align=center;verticalAlign=middle;resizable=0;points=[];;labelBackgroundColor=#ffffff;" parent="jaYtSlw9XoslfYvVKK2n-27" vertex="1" connectable="0">
          <mxGeometry x="-0.3333" y="12" relative="1" as="geometry">
            <mxPoint x="-12" y="-10" as="offset"/>
          </mxGeometry>
        </mxCell>
        <mxCell id="jaYtSlw9XoslfYvVKK2n-29" value="n" style="text;html=1;align=center;verticalAlign=middle;resizable=0;points=[];;labelBackgroundColor=#ffffff;" parent="jaYtSlw9XoslfYvVKK2n-27" vertex="1" connectable="0">
          <mxGeometry x="0.3086" y="-2" relative="1" as="geometry">
            <mxPoint x="2" y="1" as="offset"/>
          </mxGeometry>
        </mxCell>
        <mxCell id="jaYtSlw9XoslfYvVKK2n-30" value="" style="endArrow=classic;html=1;" parent="jaYtSlw9XoslfYvVKK2n-1" edge="1">
          <mxGeometry width="50" height="50" relative="1" as="geometry">
            <mxPoint x="380" y="310" as="sourcePoint"/>
            <mxPoint x="301" y="310" as="targetPoint"/>
          </mxGeometry>
        </mxCell>
        <mxCell id="jaYtSlw9XoslfYvVKK2n-33" value="n" style="text;html=1;align=center;verticalAlign=middle;resizable=0;points=[];;labelBackgroundColor=#ffffff;" parent="jaYtSlw9XoslfYvVKK2n-30" vertex="1" connectable="0">
          <mxGeometry x="0.4626" relative="1" as="geometry">
            <mxPoint x="-2.5" as="offset"/>
          </mxGeometry>
        </mxCell>
        <mxCell id="jaYtSlw9XoslfYvVKK2n-34" value="1" style="text;html=1;align=center;verticalAlign=middle;resizable=0;points=[];;labelBackgroundColor=#ffffff;" parent="jaYtSlw9XoslfYvVKK2n-30" vertex="1" connectable="0">
          <mxGeometry x="-0.5133" y="-1" relative="1" as="geometry">
            <mxPoint as="offset"/>
          </mxGeometry>
        </mxCell>
        <mxCell id="jaYtSlw9XoslfYvVKK2n-35" value="" style="rounded=0;orthogonalLoop=1;jettySize=auto;html=1;exitX=1.016;exitY=0.171;exitDx=0;exitDy=0;exitPerimeter=0;entryX=0;entryY=0.167;entryDx=0;entryDy=0;entryPerimeter=0;" parent="jaYtSlw9XoslfYvVKK2n-1" edge="1">
          <mxGeometry relative="1" as="geometry">
            <mxPoint x="480.2222222222222" y="270.2777777777778" as="sourcePoint"/>
            <mxPoint x="560.5" y="270.02" as="targetPoint"/>
          </mxGeometry>
        </mxCell>
        <mxCell id="jaYtSlw9XoslfYvVKK2n-36" value="1" style="text;html=1;align=center;verticalAlign=middle;resizable=0;points=[];;labelBackgroundColor=#ffffff;" parent="jaYtSlw9XoslfYvVKK2n-35" vertex="1" connectable="0">
          <mxGeometry x="-0.6603" relative="1" as="geometry">
            <mxPoint x="6.5" as="offset"/>
          </mxGeometry>
        </mxCell>
        <mxCell id="jaYtSlw9XoslfYvVKK2n-37" value="n" style="text;html=1;align=center;verticalAlign=middle;resizable=0;points=[];;labelBackgroundColor=#ffffff;" parent="jaYtSlw9XoslfYvVKK2n-35" vertex="1" connectable="0">
          <mxGeometry x="0.509" relative="1" as="geometry">
            <mxPoint as="offset"/>
          </mxGeometry>
        </mxCell>
        <mxCell id="jaYtSlw9XoslfYvVKK2n-38" value="" style="endArrow=classic;html=1;" parent="jaYtSlw9XoslfYvVKK2n-1" edge="1">
          <mxGeometry width="50" height="50" relative="1" as="geometry">
            <mxPoint x="560.5" y="310" as="sourcePoint"/>
            <mxPoint x="481.5" y="310" as="targetPoint"/>
          </mxGeometry>
        </mxCell>
        <mxCell id="jaYtSlw9XoslfYvVKK2n-39" value="n" style="text;html=1;align=center;verticalAlign=middle;resizable=0;points=[];;labelBackgroundColor=#ffffff;" parent="jaYtSlw9XoslfYvVKK2n-38" vertex="1" connectable="0">
          <mxGeometry x="0.4626" relative="1" as="geometry">
            <mxPoint x="-2.5" as="offset"/>
          </mxGeometry>
        </mxCell>
        <mxCell id="jaYtSlw9XoslfYvVKK2n-40" value="1" style="text;html=1;align=center;verticalAlign=middle;resizable=0;points=[];;labelBackgroundColor=#ffffff;" parent="jaYtSlw9XoslfYvVKK2n-38" vertex="1" connectable="0">
          <mxGeometry x="-0.5133" y="-1" relative="1" as="geometry">
            <mxPoint as="offset"/>
          </mxGeometry>
        </mxCell>
        <mxCell id="jaYtSlw9XoslfYvVKK2n-49" value="分配" style="edgeStyle=orthogonalEdgeStyle;curved=1;rounded=0;orthogonalLoop=1;jettySize=auto;html=1;entryX=0.5;entryY=0;entryDx=0;entryDy=0;exitX=0.5;exitY=0;exitDx=0;exitDy=0;dashed=1;" parent="jaYtSlw9XoslfYvVKK2n-1" edge="1" source="jaYtSlw9XoslfYvVKK2n-12">
          <mxGeometry relative="1" as="geometry">
            <mxPoint x="440" y="259.8571428571429" as="sourcePoint"/>
            <mxPoint x="260" y="259.8571428571429" as="targetPoint"/>
            <Array as="points">
              <mxPoint x="430" y="220"/>
              <mxPoint x="260" y="220"/>
            </Array>
          </mxGeometry>
        </mxCell>
        <mxCell id="jaYtSlw9XoslfYvVKK2n-52" value="many2many" style="edgeStyle=orthogonalEdgeStyle;curved=1;rounded=0;orthogonalLoop=1;jettySize=auto;html=1;dashed=1;exitX=0.5;exitY=1;exitDx=0;exitDy=0;" parent="jaYtSlw9XoslfYvVKK2n-1" edge="1" target="jaYtSlw9XoslfYvVKK2n-10" source="jaYtSlw9XoslfYvVKK2n-12">
          <mxGeometry relative="1" as="geometry">
            <mxPoint x="434" y="320" as="sourcePoint"/>
            <mxPoint x="249.8620689655172" y="319.72413793103453" as="targetPoint"/>
            <Array as="points">
              <mxPoint x="430" y="350"/>
              <mxPoint x="260" y="350"/>
            </Array>
          </mxGeometry>
        </mxCell>
      </root>
    </mxGraphModel>
  </diagram>
</mxfile>
